<svg xmlns="http://www.w3.org/2000/svg" viewBox="0 0 410 404"><title>Vite Logo</title><defs><linearGradient id="vite-gradient-1" x1="0" x2="1" y1="0" y2="1"><stop offset="0%" stop-color="#41d1ff"/><stop offset="100%" stop-color="#bd34fe"/></linearGradient><linearGradient id="vite-gradient-2" x1="0" x2="1" y1="0" y2="1"><stop offset="0%" stop-color="#ffea83"/><stop offset="100%" stop-color="#ff9f00"/></linearGradient></defs><path d="M399.641 59.524a12.393 12.393 0 0 0-19.033-4.92L252.328 143.87l-52.89-100.62a12.393 12.393 0 0 0-22.185 0l-52.89 100.62-128.28-89.266a12.393 12.393 0 0 0-19.033 4.92 12.393 12.393 0 0 0 4.047 14.072L172.3 234.866 119.4 335.486a12.393 12.393 0 0 0 10.93 17.637 12.393 12.393 0 0 0 10.93-6.458l63.095-120.015 63.095 120.015a12.393 12.393 0 0 0 10.93 6.458 12.393 12.393 0 0 0 10.93-17.637l-52.9-100.62 191.204-161.27a12.393 12.393 0 0 0 4.047-14.072Z" fill="url(#vite-gradient-1)"/><path d="M294.93 149.69 179.7 306.356a12.393 12.393 0 0 0 2.14 17.28 12.393 12.393 0 0 0 17.28-2.141l115.23-156.666a12.393 12.393 0 0 0-2.14-17.28 12.393 12.393 0 0 0-17.28 2.141Z" fill="url(#vite-gradient-2)"/></svg>
